<svg width="1134" height="1340" viewBox="0 0 1134 1340" fill="none" xmlns="http://www.w3.org/2000/svg">
<g style="mix-blend-mode:overlay" opacity="0.7" filter="url(#filter0_d_3888_679)">
<path fill-rule="evenodd" clip-rule="evenodd" d="M1153.96 372.199C1153.96 372.199 1142.46 381.199 1096.46 372.199C1096.46 372.199 1007.34 244.799 866.963 153.605C818.774 112.474 745.446 78.0147 651.463 67.1713C651.463 67.1713 634.463 15.1993 604.963 11.1993C575.463 7.19932 553.463 64.7392 553.463 64.7392C410.479 75.444 73.2322 195.422 39.4628 298.199C4.96302 403.199 -15.5372 686.199 138.463 660.699C138.463 660.699 138.463 691.199 165.463 690.699C165.463 690.699 279.963 708.199 353.963 738.199C353.963 738.199 407.463 878.699 625.963 1293.7L667.463 1348.2L1153.96 1335.7V372.199ZM604.963 217.199C586.463 168.199 470.463 218.199 445.963 249.199C421.463 280.199 623.463 266.199 604.963 217.199Z" fill="url(#paint0_linear_3888_679)"/>
<path d="M792 11.4991C839 3.99973 840.5 95.9987 839 128.499C837.5 160.999 684 76.9988 718 66.4992C752 55.9995 745 18.9985 792 11.4991Z" fill="url(#paint1_linear_3888_679)"/>
</g>
<defs>
<filter id="filter0_d_3888_679" x="0" y="0" width="1168.96" height="1367.2" filterUnits="userSpaceOnUse" color-interpolation-filters="sRGB">
<feFlood flood-opacity="0" result="BackgroundImageFix"/>
<feColorMatrix in="SourceAlpha" type="matrix" values="0 0 0 0 0 0 0 0 0 0 0 0 0 0 0 0 0 0 127 0" result="hardAlpha"/>
<feOffset dy="4"/>
<feGaussianBlur stdDeviation="7.5"/>
<feComposite in2="hardAlpha" operator="out"/>
<feColorMatrix type="matrix" values="0 0 0 0 0 0 0 0 0 0 0 0 0 0 0 0 0 0 0.25 0"/>
<feBlend mode="normal" in2="BackgroundImageFix" result="effect1_dropShadow_3888_679"/>
<feBlend mode="normal" in="SourceGraphic" in2="effect1_dropShadow_3888_679" result="shape"/>
</filter>
<linearGradient id="paint0_linear_3888_679" x1="584.481" y1="11" x2="584.481" y2="1348.2" gradientUnits="userSpaceOnUse">
<stop stop-color="#C9B99F"/>
<stop offset="0.480012" stop-color="#9C7B5C"/>
<stop offset="0.960012" stop-color="#45301B"/>
</linearGradient>
<linearGradient id="paint1_linear_3888_679" x1="776.213" y1="11.0663" x2="776.213" y2="135.93" gradientUnits="userSpaceOnUse">
<stop stop-color="#C9B99F"/>
</linearGradient>
</defs>
</svg>
