<svg width="126" height="134" viewBox="0 0 126 134" fill="none" xmlns="http://www.w3.org/2000/svg">
<circle cx="62.9271" cy="62.9271" r="62.9271" transform="matrix(-1 0 0 1 125.964 7.91382)" fill="white"/>
<circle cx="52.7347" cy="52.7347" r="52.7347" transform="matrix(-1 0 0 1 115.624 17.9583)" fill="#6D4C41"/>
<rect width="29.2478" height="14.7716" rx="7.38581" transform="matrix(-0.748301 -0.66336 -0.66336 0.748301 125.964 19.634)" fill="white"/>
<rect x="0.0359802" y="19.634" width="29.2478" height="14.7716" rx="7.38581" transform="rotate(-41.5566 0.0359802 19.634)" fill="white"/>
<rect width="41.3605" height="36.6336" transform="matrix(-1 0 0 1 63.0369 34.2073)" fill="white"/>
<rect width="20.9757" height="23.93" transform="matrix(-1 0 0 1 47.6744 22.0945)" fill="white"/>
<rect width="20.9757" height="23.93" transform="matrix(-1 0 0 1 37.3342 28.594)" fill="white"/>
<rect width="50" height="49" transform="matrix(-1 0 0 1 60 40)" fill="white"/>
<rect width="20.6803" height="36.6336" transform="matrix(-1 0 0 1 63.0369 17.9583)" fill="white"/>
<path d="M63 63H1L14.1915 105.572L38.5957 125H63V63Z" fill="white"/>
<path d="M119.647 71.28H62.9892V129.737L99.9783 117.693L113.776 97.7177L119.647 71.28Z" fill="white"/>
</svg>
