<svg width="127" height="134" viewBox="0 0 127 134" fill="none" xmlns="http://www.w3.org/2000/svg">
<circle cx="62.9271" cy="62.9271" r="62.9271" transform="matrix(-1 0 0 1 126.168 7.91357)" fill="white"/>
<circle cx="52.7347" cy="52.7347" r="52.7347" transform="matrix(-1 0 0 1 115.828 17.958)" fill="#6D4C41"/>
<rect width="29.2478" height="14.7716" rx="7.38581" transform="matrix(-0.748301 -0.66336 -0.66336 0.748301 126.168 19.6338)" fill="white"/>
<rect x="0.240097" y="19.6338" width="29.2478" height="14.7716" rx="7.38581" transform="rotate(-41.5566 0.240097 19.6338)" fill="white"/>
<rect width="41.3605" height="36.6336" transform="matrix(-1 0 0 1 63.241 34.207)" fill="white"/>
<rect width="20.9757" height="23.93" transform="matrix(-1 0 0 1 47.8785 22.0942)" fill="white"/>
<rect width="20.9757" height="23.93" transform="matrix(-1 0 0 1 37.5384 28.5938)" fill="white"/>
<rect width="41.3605" height="30.4295" transform="matrix(-1 0 0 1 51.7191 40.4111)" fill="white"/>
<rect width="20.6803" height="36.6336" transform="matrix(-1 0 0 1 63.241 17.958)" fill="white"/>
</svg>
