<svg width="127" height="134" viewBox="0 0 127 134" fill="none" xmlns="http://www.w3.org/2000/svg">
<circle cx="62.9271" cy="62.9271" r="62.9271" transform="matrix(-1 0 0 1 126.066 7.91382)" fill="white"/>
<circle cx="52.7347" cy="52.7347" r="52.7347" transform="matrix(-1 0 0 1 115.726 17.9583)" fill="#6D4C41"/>
<rect width="29.2478" height="14.7716" rx="7.38581" transform="matrix(-0.748301 -0.66336 -0.66336 0.748301 126.066 19.634)" fill="white"/>
<rect x="0.138046" y="19.634" width="29.2478" height="14.7716" rx="7.38581" transform="rotate(-41.5566 0.138046 19.634)" fill="white"/>
<rect width="41.3605" height="36.6336" transform="matrix(-1 0 0 1 63.1389 34.2073)" fill="white"/>
<rect width="20.9757" height="23.93" transform="matrix(-1 0 0 1 47.7765 22.0945)" fill="white"/>
<rect width="20.9757" height="23.93" transform="matrix(-1 0 0 1 37.4363 28.594)" fill="white"/>
<path d="M51.6172 40.4114H10.2567L1 71L12 99H53.3605L51.6172 40.4114Z" fill="white"/>
<path d="M63.1389 15.3664H42.4587V52H63.1389V15.3664Z" fill="white"/>
<path d="M63.1389 45H34.5L14 46L2.5 60L0.5 69L3.5 89L19.4149 108.066L41.2769 125.053H63.1389V45Z" fill="white"/>
</svg>
