<svg width="44" height="30" viewBox="0 0 44 30" fill="none" xmlns="http://www.w3.org/2000/svg">
<ellipse cx="32.5862" cy="18.9652" rx="10.7502" ry="10.8266" fill="url(#paint0_linear_4879_1946)"/>
<path d="M31.5162 12.8153C28.7859 14.0373 30.6061 8.84392 31.5162 7.31649C32.4263 5.78906 34.2465 3.03965 35.46 2.73415C36.6734 2.42864 36.1711 4.87261 35.8678 7.62201C35.5644 10.3714 34.2465 11.5933 31.5162 12.8153Z" fill="url(#paint1_linear_4879_1946)"/>
<ellipse cx="10.7502" cy="16.2567" rx="10.7502" ry="10.8266" fill="url(#paint2_linear_4879_1946)"/>
<path d="M9.68029 10.1071C6.95 11.329 8.77019 6.13566 9.68029 4.60824C10.5904 3.08081 12.4106 0.331401 13.624 0.025895C14.8375 -0.279611 14.3352 2.16436 14.0318 4.91376C13.7285 7.66317 12.4106 8.8851 9.68029 10.1071Z" fill="url(#paint3_linear_4879_1946)"/>
<defs>
<linearGradient id="paint0_linear_4879_1946" x1="30.914" y1="7.04227" x2="33.0116" y2="26.8278" gradientUnits="userSpaceOnUse">
<stop offset="0.0998235" stop-color="#FFDF12"/>
<stop offset="0.595279" stop-color="#FF9E16"/>
<stop offset="1" stop-color="#E58908"/>
</linearGradient>
<linearGradient id="paint1_linear_4879_1946" x1="35.5644" y1="3.34519" x2="33.1219" y2="12.9917" gradientUnits="userSpaceOnUse">
<stop stop-color="#A4E374"/>
<stop offset="1" stop-color="#5DA526"/>
</linearGradient>
<linearGradient id="paint2_linear_4879_1946" x1="9.07803" y1="4.33377" x2="11.1756" y2="24.1193" gradientUnits="userSpaceOnUse">
<stop offset="0.0998235" stop-color="#FFDF12"/>
<stop offset="0.595279" stop-color="#FF9E16"/>
<stop offset="1" stop-color="#E58908"/>
</linearGradient>
<linearGradient id="paint3_linear_4879_1946" x1="13.7285" y1="0.636933" x2="11.2859" y2="10.2834" gradientUnits="userSpaceOnUse">
<stop stop-color="#A4E374"/>
<stop offset="1" stop-color="#5DA526"/>
</linearGradient>
</defs>
</svg>
