<svg width="54" height="50" viewBox="0 0 54 50" fill="none" xmlns="http://www.w3.org/2000/svg">
<path d="M52.5104 12.0523C53.3538 13.2549 53.5435 14.6156 53.0797 16.1346L44.3827 44.8057C43.9822 46.1559 43.1757 47.2899 41.9634 48.2076C40.7511 49.1254 39.4597 49.5842 38.0893 49.5842H8.89922C7.27579 49.5842 5.71034 49.0199 4.20287 47.8912C2.6954 46.7625 1.6465 45.3753 1.05616 43.7298C0.550155 42.3162 0.529072 40.9766 0.992909 39.7107C0.992909 39.6263 1.02453 39.3415 1.08778 38.8563C1.15103 38.3711 1.1932 37.9808 1.21429 37.6854C1.23537 37.5166 1.20374 37.2898 1.11941 37.005C1.03508 36.7202 1.00345 36.5145 1.02453 36.3879C1.0667 36.1559 1.15104 35.9343 1.27754 35.7234C1.40404 35.5124 1.57798 35.2645 1.79935 34.9797C2.02073 34.6949 2.19467 34.447 2.32117 34.236C2.80609 33.4343 3.28047 32.4691 3.7443 31.3404C4.20814 30.2117 4.52439 29.2465 4.69306 28.4448C4.75631 28.2339 4.76158 27.9174 4.70887 27.4955C4.65617 27.0735 4.65089 26.7782 4.69306 26.6094C4.75631 26.3773 4.93552 26.082 5.23069 25.7233C5.52586 25.3647 5.70507 25.122 5.76832 24.9955C6.21107 24.236 6.65383 23.2655 7.09658 22.084C7.53933 20.9026 7.80288 19.9532 7.88721 19.2359C7.90829 19.0461 7.88194 18.7085 7.80815 18.2233C7.73436 17.738 7.73963 17.4427 7.82396 17.3372C7.90829 17.0629 8.14021 16.7412 8.51972 16.372C8.89922 16.0028 9.13114 15.7654 9.21547 15.66C9.61606 15.1114 10.0641 14.2201 10.5595 12.9859C11.055 11.7517 11.3449 10.7338 11.4292 9.93207C11.4503 9.76329 11.4187 9.4943 11.3344 9.1251C11.25 8.7559 11.2289 8.47637 11.2711 8.28649C11.3133 8.11771 11.4082 7.92784 11.5557 7.71687C11.7033 7.5059 11.8931 7.26328 12.125 6.98901C12.3569 6.71475 12.5361 6.49323 12.6626 6.32445C12.8313 6.07129 13.0052 5.74955 13.1844 5.35926C13.3636 4.96896 13.5218 4.59976 13.6588 4.25166C13.7959 3.90355 13.9645 3.5238 14.1648 3.11241C14.3651 2.70101 14.5707 2.36346 14.7815 2.09974C14.9923 1.83603 15.2717 1.58814 15.6196 1.35607C15.9675 1.124 16.347 1.00269 16.7581 0.992141C17.1692 0.981593 17.67 1.03961 18.2603 1.16619L18.2287 1.26113C19.0298 1.07126 19.5675 0.976318 19.8416 0.976318H43.9084C45.4685 0.976318 46.6703 1.56704 47.5136 2.74848C48.357 3.92992 48.5467 5.30124 48.0829 6.86243L39.4176 35.5335C38.6586 38.0441 37.9048 39.6633 37.1564 40.3911C36.4079 41.119 35.0533 41.4829 33.0925 41.4829H5.61019C5.04094 41.4829 4.64035 41.6411 4.40843 41.9576C4.17652 42.2951 4.16597 42.7487 4.37681 43.3184C4.88281 44.7952 6.40082 45.5336 8.93084 45.5336H38.1209C38.7324 45.5336 39.3227 45.3701 39.892 45.043C40.4612 44.716 40.8302 44.2783 40.9988 43.7298L50.4864 12.4954C50.634 12.0312 50.6867 11.43 50.6445 10.6916C51.4457 11.008 52.0677 11.4616 52.5104 12.0523ZM18.8612 12.1156C18.7768 12.3899 18.7979 12.6272 18.9244 12.8277C19.0509 13.0281 19.2618 13.1283 19.5569 13.1283H38.7851C39.0592 13.1283 39.328 13.0281 39.5915 12.8277C39.8551 12.6272 40.029 12.3899 40.1133 12.1156L40.7775 10.0903C40.8618 9.81604 40.8407 9.57869 40.7142 9.37827C40.5877 9.17785 40.3769 9.07763 40.0817 9.07763H20.8536C20.5795 9.07763 20.3107 9.17785 20.0471 9.37827C19.7836 9.57869 19.6096 9.81604 19.5253 10.0903L18.8612 12.1156ZM16.2363 20.2169C16.1519 20.4912 16.173 20.7286 16.2995 20.929C16.426 21.1294 16.6369 21.2296 16.932 21.2296H36.1602C36.4343 21.2296 36.7031 21.1294 36.9666 20.929C37.2302 20.7286 37.4041 20.4912 37.4884 20.2169L38.1526 18.1916C38.2369 17.9174 38.2158 17.68 38.0893 17.4796C37.9628 17.2792 37.752 17.179 37.4568 17.179H18.2287C17.9546 17.179 17.6858 17.2792 17.4222 17.4796C17.1587 17.68 16.9847 17.9174 16.9004 18.1916L16.2363 20.2169Z" fill="#9D826E"/>
</svg>
