<svg width="54" height="52" viewBox="0 0 54 52" fill="none" xmlns="http://www.w3.org/2000/svg">
<path d="M38.1224 14.6859C41.2385 13.5217 43.852 11.7659 45.682 9.60708C47.512 7.4483 48.4894 4.96822 48.509 2.43338C48.512 1.97141 48.2603 1.52672 47.8094 1.19712C47.3584 0.867527 46.7451 0.680031 46.1044 0.675881L43.6885 0.660235C40.2348 0.63881 36.8402 1.28505 33.8579 2.53171C30.8756 3.77838 28.4145 5.57993 26.7307 7.74892C25.0752 5.5583 22.6377 3.72502 19.6718 2.43983C16.7059 1.15464 13.3199 0.464493 9.8662 0.441181L7.45033 0.425534C6.8096 0.421384 6.19392 0.600921 5.73874 0.924648C5.28356 1.24837 5.02616 1.68977 5.02317 2.15174C5.02017 2.61371 5.27183 3.05841 5.72278 3.388C6.17373 3.7176 6.78703 3.90509 7.42776 3.90924L9.84364 3.92489C13.29 3.95062 16.6166 4.85939 19.2286 6.48871C21.8406 8.11803 23.5675 10.3616 24.1007 12.8183C17.7031 13.2282 11.738 15.2961 7.30983 18.6392C2.88165 21.9824 0.290237 26.3743 0.0153284 31.002C-0.259581 35.6297 1.80063 40.1797 5.81457 43.8098C9.82852 47.4398 15.5243 49.9041 21.8476 50.7463C28.1709 51.5885 34.6933 50.7516 40.2075 48.3906C45.7217 46.0297 49.8542 42.3044 51.84 37.9046C53.8257 33.5048 53.5302 28.7283 51.0082 24.4595C48.4862 20.1907 43.9085 16.7185 38.1224 14.6859ZM43.4636 4.14263C42.8782 6.54809 41.1433 8.72648 38.5596 10.3004C35.9759 11.8744 32.706 12.7447 29.3166 12.7607C29.902 10.3552 31.6369 8.1768 34.2206 6.60286C36.8043 5.02891 40.0742 4.15858 43.4636 4.14263ZM43.4391 34.0427C42.8013 36.5639 41.1041 38.8797 38.5771 40.6769C36.0501 42.4741 32.8153 43.666 29.31 44.0914C29.1781 44.106 29.0447 44.1131 28.9112 44.1127C28.3055 44.1082 27.7232 43.9397 27.2799 43.6407C26.8365 43.3417 26.5644 42.934 26.5175 42.4984C26.4705 42.0628 26.6522 41.6311 27.0264 41.2889C27.4006 40.9466 27.9401 40.7187 28.538 40.6504C31.054 40.3446 33.3758 39.4889 35.1897 38.1989C37.0036 36.9088 38.2221 35.2467 38.6805 33.437C38.7943 32.9856 39.151 32.5856 39.6729 32.324C40.1947 32.0625 40.8396 31.9605 41.4673 32.0404C42.0949 32.1202 42.6545 32.3754 43.0243 32.7503C43.3941 33.1253 43.5443 33.5898 43.4421 34.0427L43.4391 34.0427Z" fill="#9D826E"/>
</svg>
