<svg width="33" height="33" viewBox="0 0 33 33" fill="none" xmlns="http://www.w3.org/2000/svg">
<path d="M16.5 30.25C24.0939 30.25 30.25 24.0939 30.25 16.5C30.25 8.90608 24.0939 2.75 16.5 2.75C8.90608 2.75 2.75 8.90608 2.75 16.5C2.75 24.0939 8.90608 30.25 16.5 30.25Z" stroke="#543A25" stroke-width="1.5"/>
<path d="M12.375 23.375C13.5438 22.5088 14.9669 22 16.5 22C18.0331 22 19.4562 22.5088 20.625 23.375" stroke="#543A25" stroke-width="1.5" stroke-linecap="round"/>
<path d="M20.625 16.5C21.3844 16.5 22 15.5766 22 14.4375C22 13.2984 21.3844 12.375 20.625 12.375C19.8656 12.375 19.25 13.2984 19.25 14.4375C19.25 15.5766 19.8656 16.5 20.625 16.5Z" fill="#543A25"/>
<path d="M12.375 16.5C13.1344 16.5 13.75 15.5766 13.75 14.4375C13.75 13.2984 13.1344 12.375 12.375 12.375C11.6156 12.375 11 13.2984 11 14.4375C11 15.5766 11.6156 16.5 12.375 16.5Z" fill="#543A25"/>
</svg>
